<?xml version="1.0" encoding="utf-8"?>
<!-- Generator: Adobe Illustrator 16.0.0, SVG Export Plug-In . SVG Version: 6.00 Build 0)  -->
<!DOCTYPE svg PUBLIC "-//W3C//DTD SVG 1.1//EN" "http://www.w3.org/Graphics/SVG/1.1/DTD/svg11.dtd">
<svg version="1.1" id="Layer_1" xmlns="http://www.w3.org/2000/svg" xmlns:xlink="http://www.w3.org/1999/xlink" x="0px" y="0px"
	 width="40px" height="66px" viewBox="67 5 40 66" enable-background="new 67 5 40 66" xml:space="preserve">
<g>
	<g>
		<g>
			<polygon fill="#FFFFFF" points="95.703,62.918 91.36,58.558 91.36,67.278 			"/>
			<polygon fill="#FFFFFF" points="87,62.918 91.36,58.558 82.64,58.558 			"/>
			<polygon fill="#FFFFFF" points="78.279,62.918 82.64,67.278 82.64,58.558 			"/>
			<polygon fill="#FFFFFF" points="87,62.918 82.64,67.278 91.36,67.278 			"/>
		</g>
		<g>
			<path fill="#FFFFFF" d="M104.278,38.009h-3.688h-0.182h-0.637c-0.816,0-1.018,0.582-1.018,0.582l-0.871,2.09h-0.02l-0.219-2.688
				h-1.362c-0.653,0-0.926,0.6-0.926,0.6l-1.036,2.07h-0.02v-2.688h-0.926c-0.617,0-0.744,0.345-0.781,0.527
				c-0.182-0.345-0.672-0.527-1.545-0.527h-2.197c-0.709,0-0.781,0.545-0.781,0.545l-0.799,3.761h3.107
				c0.907,0,1.198-0.091,1.524-0.326c0.219-0.164,0.399-0.437,0.474-0.781c0.146-0.745-0.363-1.035-0.945-1.072v-0.018
				c0.526-0.127,0.981-0.363,1.164-0.854l0.071,3.034h1.49c0.854,0,1.162-0.781,1.162-0.781l0.907-1.816h0.02l0.219,2.617h1.325
				c0.964,0,1.291-0.854,1.291-0.854l1.162-2.652l-0.728,3.488h0.8c1.018,0,1.164-0.836,1.164-0.836l0.163-0.763h1.125
				c0.873,0,1-0.674,1-0.674l0.056-0.217h-1.999l0.182-0.891h1.254c0.854,0,0.981-0.654,0.981-0.654L104.278,38.009z M89.58,39.752
				l0.2-0.943h0.527c0.562,0,0.652,0.163,0.58,0.473c-0.055,0.289-0.254,0.473-0.781,0.473H89.58V39.752z M89.218,41.533
				l0.217-1.035h0.527c0.617,0,0.799,0.164,0.728,0.509c-0.072,0.362-0.327,0.51-0.945,0.51h-0.526V41.533L89.218,41.533z"/>
			<g>
				<g>
					<path fill="#FFFFFF" d="M72.501,40.479h-1.853v1.835h-0.927v-4.288h0.927v1.763h1.853v-1.763h0.928v4.288h-0.928V40.479z"/>
					<path fill="#FFFFFF" d="M75.663,42.387c-0.927,0-1.689-0.363-1.708-1.398h0.928c0.018,0.454,0.271,0.728,0.78,0.728
						c0.382,0,0.8-0.183,0.8-0.617c0-0.328-0.291-0.437-0.764-0.582l-0.309-0.091c-0.672-0.2-1.345-0.454-1.345-1.235
						c0-0.963,0.89-1.271,1.708-1.271c0.835,0,1.562,0.291,1.562,1.235h-0.927c-0.036-0.398-0.254-0.617-0.708-0.617
						c-0.346,0-0.69,0.182-0.69,0.562c0,0.311,0.291,0.418,0.891,0.6l0.362,0.108c0.728,0.235,1.199,0.491,1.199,1.199
						C77.463,42.006,76.518,42.387,75.663,42.387z"/>
					<path fill="#FFFFFF" d="M77.971,38.009h1.489c0.473,0,0.654,0.019,0.836,0.055c0.526,0.127,0.908,0.454,0.908,1.036
						c0,0.545-0.345,0.836-0.854,0.963c0.582,0.107,1.018,0.398,1.018,1.036c0,0.979-0.963,1.198-1.708,1.198h-1.689V38.009
						L77.971,38.009z M79.479,39.807c0.418,0,0.817-0.09,0.817-0.581c0-0.437-0.399-0.563-0.764-0.563h-0.653v1.146L79.479,39.807
						L79.479,39.807z M79.569,41.66c0.437,0,0.854-0.108,0.854-0.617c0-0.508-0.364-0.637-0.801-0.637h-0.727v1.254H79.569z"/>
					<path fill="#FFFFFF" d="M83.804,42.387c-1.381,0-1.999-0.891-1.999-2.197c0-1.291,0.689-2.253,2.053-2.253
						c0.854,0,1.69,0.381,1.708,1.345h-0.963c-0.055-0.438-0.327-0.654-0.745-0.654c-0.835,0-1.09,0.908-1.09,1.599
						s0.254,1.474,1.054,1.474c0.418,0,0.728-0.22,0.799-0.654h0.963C85.475,42.023,84.693,42.387,83.804,42.387z"/>
				</g>
			</g>
		</g>
		<g>
			<path fill="#FFFFFF" d="M74.409,44.24h1.055l0.763,3.252h0.018l0.69-3.252h0.891l-1.107,4.324h-1.036L74.9,45.258h-0.018
				l-0.836,3.307h-1.055l-1.054-4.324h0.963l0.672,3.252h0.019L74.409,44.24z"/>
			<path fill="#FFFFFF" d="M79.352,48.656c-0.981,0-1.562-0.654-1.562-1.6c0-0.946,0.582-1.6,1.562-1.6s1.562,0.653,1.562,1.6
				C80.913,48.002,80.332,48.656,79.352,48.656z M79.352,48.056c0.545,0,0.636-0.509,0.636-0.999s-0.091-1-0.636-1
				s-0.636,0.51-0.636,1S78.807,48.056,79.352,48.056z"/>
			<path fill="#FFFFFF" d="M82.203,45.549l0.019,0.545h0.019c0.2-0.473,0.581-0.6,1.018-0.582v0.8h-0.382
				c-0.146,0.019-0.345,0.091-0.436,0.218c-0.091,0.164-0.109,0.327-0.127,0.527v1.49h-0.89v-2.418c0-0.127-0.019-0.381-0.036-0.6
				h0.816L82.203,45.549L82.203,45.549z"/>
			<path fill="#FFFFFF" d="M84.676,44.24v4.324h-0.909V44.24H84.676z"/>
			<path fill="#FFFFFF" d="M87.527,44.24h0.907v3.726c0,0.2,0.02,0.399,0.037,0.6h-0.908c-0.018-0.146-0.018-0.272-0.018-0.418
				h-0.02c-0.2,0.347-0.527,0.509-0.927,0.509c-0.891,0-1.29-0.816-1.29-1.599c0-0.817,0.473-1.601,1.417-1.601
				c0.309,0,0.636,0.183,0.8,0.438h0.02v-1.652h-0.019V44.24z M86.873,48.056c0.491,0,0.654-0.581,0.654-0.999s-0.164-1-0.654-1
				c-0.582,0-0.653,0.527-0.653,1S86.291,48.056,86.873,48.056z"/>
			<path fill="#FFFFFF" d="M89.743,44.24h3.508v0.728H91.96v3.614h-0.926v-3.614h-1.291V44.24z"/>
			<path fill="#FFFFFF" d="M94.485,48.656c-0.98,0-1.562-0.654-1.562-1.6c0-0.946,0.582-1.6,1.562-1.6s1.562,0.653,1.562,1.6
				C96.048,48.002,95.485,48.656,94.485,48.656z M94.485,48.056c0.545,0,0.637-0.509,0.637-0.999s-0.092-1-0.637-1
				s-0.635,0.51-0.635,1S93.94,48.056,94.485,48.056z"/>
			<path fill="#FFFFFF" d="M98.556,48.201c-0.199,0.272-0.474,0.455-0.928,0.455c-0.309,0-0.89-0.236-0.98-0.673
				c-0.055-0.183-0.055-0.382-0.055-0.473v-1.962h0.908v1.799c0,0.326,0.092,0.689,0.545,0.689c0.291,0,0.526-0.254,0.545-0.689
				v-1.799H99.5v2.471c0,0.182,0.019,0.363,0.035,0.545h-0.89L98.556,48.201z"/>
			<path fill="#FFFFFF" d="M101.009,45.549l0.019,0.545h0.019c0.2-0.473,0.581-0.6,1.018-0.582v0.8h-0.381
				c-0.146,0.019-0.346,0.091-0.437,0.218c-0.092,0.164-0.108,0.327-0.128,0.527v1.49h-0.891v-2.418c0-0.127-0.019-0.381-0.036-0.6
				h0.817V45.549z"/>
		</g>
	</g>
	<g>
		<path fill="#FFFFFF" d="M93.777,18.75c0-2.834-2.308-5.143-5.142-5.143s-5.143,2.308-5.143,5.143s2.309,5.142,5.143,5.142
			C91.47,23.91,93.777,21.602,93.777,18.75z"/>
		<path fill="#FFFFFF" d="M82.912,13.663c0.109,0.072,0.654,0.437,1.363,0.963c0.254-0.291,0.981-0.927,1.89-1.327
			c-0.018-0.036-0.182-0.381-0.653-1.036c0.2-0.073,0.418-0.145,0.418-0.145c-0.981-1.653-2.216-2.962-2.216-2.962
			c-0.582,0.163-1.019,0.326-1.126,0.363c0.145,0.127,1.979,1.854,2.634,2.834l0,0c-0.109,0.037-0.236,0.109-0.4,0.183
			c-0.727-0.999-2.834-2.78-2.834-2.78c-2.58,1.145-4.07,2.834-4.07,2.834c2.181,0.545,4.324,1.581,4.324,1.581
			C82.513,13.99,82.73,13.826,82.912,13.663z"/>
		<path fill="#FFFFFF" d="M79.95,19.422c1.544-0.437,2.58-0.563,2.689-0.582c-0.019-0.636,0.108-1.508,0.382-2.198
			c-1.254-0.345-2.181-0.436-2.181-0.436c0.091-0.164,0.146-0.254,0.235-0.418c-0.164-0.036-2.688-0.51-5.087-0.346
			c0,0-0.309,0.582-0.582,1.326c2.89-0.381,4.814-0.254,5.232-0.218l0,0c-0.127,0.218-0.272,0.436-0.254,0.436
			c0,0-1.944-0.127-5.232,0.473c0,0-0.909,2.635-0.363,5.851c0,0,2.308-1.835,5.215-3.016C79.987,20.294,79.933,19.984,79.95,19.422
			z"/>
		<path fill="#FFFFFF" d="M83.148,21.203c-0.018,0.019-1.326,0.709-2.253,1.544c-0.091-0.183-0.182-0.363-0.182-0.363
			c-1.908,1.381-3.762,3.343-4.634,4.524c0.545,1.054,1.235,1.926,1.671,2.435l0.473-0.908l0,0c0.127,0.109,0.271,0.236,0.436,0.381
			l-0.472,1.055c2.616,2.634,5.051,3.143,5.051,3.143l0.127-1.89c-0.689-0.127-1.126-0.272-1.126-0.272s0.218-2.234,1.544-5.305
			c0,0-0.271-0.091-0.727-0.382c0.018-0.036,0.89-1.49,1.363-2.125C83.875,22.475,83.403,21.839,83.148,21.203z M77.734,27.942
			c-0.291-0.309-0.473-0.526-0.473-0.526c1.562-2.362,3.598-4.215,3.797-4.378c0.073,0.127,0.146,0.254,0.236,0.381
			C81.023,23.674,79.225,25.436,77.734,27.942z"/>
		<path fill="#FFFFFF" d="M91.452,29.724c-0.037-0.055-1.072-1.726-1.816-4.07c0,0-0.236,0.092-0.674,0.2
			C88.927,25.708,88.8,25,88.745,24.709c-0.637,0.036-1.727-0.164-2.181-0.363c-0.019,0.036-0.291,1.036-0.364,1.744
			c-0.218-0.018-0.417-0.055-0.417-0.055c-0.019,0.037-0.509,2.253-0.418,5.142c0,0,0.618,0.018,1.235-0.055
			c-0.363-2.507-0.091-4.688-0.055-5.016c0,0,0.218,0.019,0.345,0.019c-0.019,0.127-0.218,2.29,0.327,4.924
			c-0.236,0.036-0.491,0.073-0.637,0.073c0,0,0.219,1.617,0.399,2.361c0,0,0.653-0.018,1.253-0.072v-0.019c0,0-0.346-1.29-0.6-2.397
			c0.235-0.036,0.49-0.092,0.582-0.109c0.325,1.126,0.762,2.436,0.762,2.436c2.688-0.346,4.943-2.018,4.943-2.018
			c-0.654-0.689-1.689-2.162-1.689-2.162C91.997,29.379,91.742,29.56,91.452,29.724z"/>
		<path fill="#FFFFFF" d="M92.669,14.372c0.473,0.417,1.072,1.181,1.363,1.889c0.09-0.054,0.217-0.145,0.326-0.2
			c0.199-0.108,0.363-0.218,0.363-0.218c0.072,0.127,0.146,0.254,0.219,0.381c0,0,1.344-0.763,2.525-1.744
			c0,0-0.201-0.345-0.545-0.78c-1.146,1.071-2.271,1.907-2.326,1.943c-0.072-0.127-0.146-0.235-0.219-0.345
			c0.036-0.036,1.018-0.872,2.145-2.035c0,0-1.072-1.398-2.743-2.471c0,0-0.491,1.345-1.199,2.58l0.509,0.418L92.669,14.372z"/>
		<path fill="#FFFFFF" d="M88.255,11.828c0.019,0.108,0.107,0.545,0.146,0.963c0.817-0.036,1.489,0.091,2.271,0.364l0.182-0.764
			c0,0,0.418,0.164,0.437,0.183c0.036-0.127,0.382-1.382,0.545-2.854c0,0-0.489-0.2-0.926-0.363
			c0.019,1.271-0.255,2.943-0.255,2.943l0,0l0,0c-0.109-0.037-0.271-0.091-0.454-0.164c0.019-0.182,0.183-1.653,0.108-2.943
			c0,0-1.508-0.582-3.997-0.453c0,0,0.708,1.381,1.181,3.069C87.527,11.828,87.782,11.791,88.255,11.828z"/>
		<path fill="#FFFFFF" d="M95.83,23.583c-0.019,0-1.271-0.527-2.452-1.217c-0.6,0.78-1.381,1.417-2.289,1.835
			c0.127,0.199,0.363,0.582,0.363,0.582c-0.072,0.054-0.164,0.127-0.255,0.182c0.019,0.036,0.927,1.653,2.217,3.088
			c0,0,0.345-0.363,0.636-0.781c-1.416-1.435-2.217-2.524-2.326-2.688c0.164-0.127,0.273-0.236,0.273-0.236s0.744,0.999,2.381,2.471
			c-0.146,0.219-0.328,0.454-0.328,0.454c0.019,0.02,1.162,1.163,2.289,1.98c0,0,0.327-0.381,0.69-0.872
			c-0.127-0.073-1.271-0.817-2.472-1.817c0.074-0.108,0.164-0.235,0.256-0.417c1.361,1.018,2.598,1.708,2.598,1.708
			c1.398-2.197,1.707-4.251,1.707-4.251c-1.543-0.271-3.143-0.763-3.143-0.763C95.958,23.056,95.903,23.329,95.83,23.583z"/>
		<path fill="#FFFFFF" d="M83.422,15.752c-0.291-0.146-0.964-0.418-1.871-0.69c0,0-0.272,0.399-0.455,0.728
			c0.091,0.018,0.963,0.164,2.053,0.509C83.222,16.116,83.33,15.934,83.422,15.752z"/>
		<path fill="#FFFFFF" d="M82.821,20.349c-0.218,0.091-0.636,0.254-1.072,0.473c-0.6,0.29-1.381,0.744-1.381,0.744
			c0.091,0.254,0.183,0.473,0.346,0.817c0.799-0.654,1.926-1.272,2.308-1.454C82.949,20.729,82.876,20.549,82.821,20.349z"/>
		<path fill="#FFFFFF" d="M85.675,23.982c-0.127,0.346-0.51,1.309-0.672,1.908c0,0,0.453,0.127,0.78,0.163
			c0.072-0.581,0.346-1.472,0.454-1.798C86.037,24.183,85.855,24.092,85.675,23.982z"/>
		<path fill="#FFFFFF" d="M91.179,24.964c-0.018-0.037-0.271-0.473-0.345-0.636c-0.182,0.072-0.382,0.146-0.581,0.199
			c0.072,0.146,0.254,0.563,0.346,0.764C90.597,25.291,90.834,25.182,91.179,24.964z"/>
		<path fill="#FFFFFF" d="M93.831,21.692c1.146,0.491,2.162,0.764,2.162,0.764c0.055-0.474,0.055-0.817,0.055-0.817
			s-1.361-0.272-1.961-0.491C94.013,21.348,93.923,21.53,93.831,21.692z"/>
		<path fill="#FFFFFF" d="M96.066,20.876c0-0.146,0-0.272-0.019-0.4c1.381,0.127,3.271-0.073,3.271-0.073
			c-0.073-2.034-0.854-3.905-0.854-3.905c-1.763,0.817-2.925,1.163-2.925,1.163c0.072,0.199,0.146,0.436,0.199,0.672l-1.146,0.2
			c0.037,0.526-0.091,1.688-0.381,2.344c0.653,0.182,1.871,0.363,1.871,0.363c0,0.127,0,0.271,0,0.399
			c1.762,0.345,3.288,0.381,3.288,0.381c0.036-0.327,0.036-1.071,0.036-1.071C99.21,20.967,97.374,21.058,96.066,20.876z"/>
		<path fill="#FFFFFF" d="M94.396,17.206c0.107-0.036,0.545-0.218,0.836-0.363c0,0-0.129-0.327-0.291-0.636l-0.727,0.398
			C94.267,16.806,94.341,17.006,94.396,17.206z"/>
		<path fill="#FFFFFF" d="M91.634,13.59c0.056-0.109,0.164-0.382,0.291-0.709c0,0-0.346-0.2-0.619-0.309l-0.217,0.745
			C91.271,13.39,91.452,13.48,91.634,13.59z"/>
		<path fill="#FFFFFF" d="M87.109,12.954c-0.164-0.418-0.454-1.018-0.454-1.018c-0.182,0.036-0.709,0.183-0.709,0.183
			c0.31,0.472,0.491,0.835,0.582,1.017C86.709,13.062,86.909,13.009,87.109,12.954z"/>
	</g>
	<g>
		<g>
			<path fill="#FFFFFF" d="M76.227,51.653C76.19,51.217,75.954,51,75.519,51c-0.345,0-0.69,0.182-0.69,0.545
				c0,0.473,0.418,0.527,0.781,0.6c0.654,0.163,1.617,0.346,1.617,1.219c0,1.071-0.927,1.436-1.854,1.436
				c-0.98,0-1.671-0.383-1.652-1.473h0.944c-0.035,0.473,0.236,0.799,0.728,0.799c0.363,0,0.854-0.107,0.854-0.562
				c0-0.508-0.618-0.545-0.98-0.636c-0.601-0.146-1.417-0.417-1.417-1.181c0-0.98,0.908-1.418,1.779-1.418
				c0.837,0,1.49,0.455,1.49,1.309h-0.891V51.653L76.227,51.653z"/>
			<path fill="#FFFFFF" d="M79.605,54.36c-0.2,0.272-0.472,0.454-0.926,0.454c-0.291,0-0.873-0.218-0.981-0.654
				c-0.054-0.182-0.054-0.381-0.054-0.473v-1.943h0.89v1.799c0,0.326,0.091,0.69,0.545,0.69c0.272,0,0.527-0.255,0.545-0.69v-1.799
				h0.892v2.453c0,0.182,0.018,0.363,0.036,0.545h-0.891L79.605,54.36z"/>
			<path fill="#FFFFFF" d="M81.969,52.09L81.969,52.09c0.182-0.256,0.508-0.438,0.816-0.438c0.928,0,1.399,0.781,1.399,1.581
				c0,0.763-0.418,1.58-1.29,1.58c-0.381,0-0.728-0.164-0.908-0.509h-0.018v1.562h-0.892v-3.524c0-0.2-0.018-0.4-0.036-0.601h0.908
				L81.969,52.09z M82.621,54.233c0.563,0,0.637-0.526,0.637-0.981c0-0.453-0.072-0.979-0.637-0.979
				c-0.49,0-0.636,0.581-0.636,0.979C81.969,53.652,82.132,54.233,82.621,54.233z"/>
			<path fill="#FFFFFF" d="M85.365,53.488c0,0.381,0.055,0.745,0.509,0.745c0.31,0,0.473-0.108,0.546-0.382h0.799
				c-0.073,0.745-0.654,0.98-1.345,0.98c-1.018,0-1.436-0.58-1.436-1.58c0-0.908,0.527-1.6,1.436-1.6
				c0.563,0,1.018,0.182,1.271,0.708c0.091,0.164,0.127,0.347,0.146,0.546c0.019,0.182,0.019,0.383,0.019,0.582H85.365
				L85.365,53.488z M86.401,52.889c0-0.327-0.091-0.637-0.527-0.637c-0.418,0-0.509,0.31-0.509,0.637H86.401z"/>
			<path fill="#FFFFFF" d="M88.509,51.744l0.019,0.545h0.019c0.2-0.473,0.581-0.58,1.018-0.58v0.8h-0.398
				c-0.146,0.018-0.346,0.09-0.438,0.217c-0.09,0.164-0.108,0.328-0.127,0.526v1.49H87.71v-2.397c0-0.127-0.019-0.382-0.035-0.601
				H88.509z"/>
			<path fill="#FFFFFF" d="M93.632,50.617v0.781l-1.271,3.344h-0.873l1.31-3.451h-1.816v-0.674H93.632z"/>
			<path fill="#FFFFFF" d="M94.903,53.707c0.02,0.289,0.236,0.525,0.527,0.525c0.453,0,0.6-0.525,0.6-0.891
				c0-0.346-0.182-0.745-0.562-0.745c-0.272,0-0.455,0.219-0.526,0.473l-0.873-0.018l0.092-2.437h2.524v0.601h-1.727l-0.055,1.09
				c0.199-0.199,0.473-0.29,0.764-0.29c0.744,0,1.271,0.454,1.271,1.417c0,0.765-0.654,1.418-1.508,1.418
				c-0.728,0-1.346-0.328-1.381-1.108h0.854V53.707z"/>
			<path fill="#FFFFFF" d="M98.773,54.832c-1.126,0-1.435-1.146-1.435-2.144c0-1,0.309-2.162,1.435-2.162
				c1.163,0,1.472,1.162,1.472,2.162C100.245,53.688,99.954,54.832,98.773,54.832z M98.792,51.127c-0.582,0-0.527,1.453-0.527,1.562
				s-0.055,1.544,0.527,1.544c0.581,0,0.527-1.454,0.527-1.544C99.319,52.58,99.373,51.127,98.792,51.127z"/>
		</g>
	</g>
</g>
</svg>
