<?xml version="1.0" encoding="utf-8"?>
<!-- Generator: Adobe Illustrator 16.0.0, SVG Export Plug-In . SVG Version: 6.00 Build 0)  -->
<!DOCTYPE svg PUBLIC "-//W3C//DTD SVG 1.1//EN" "http://www.w3.org/Graphics/SVG/1.1/DTD/svg11.dtd">
<svg version="1.1" id="Layer_1" xmlns="http://www.w3.org/2000/svg" xmlns:xlink="http://www.w3.org/1999/xlink" x="0px" y="0px"
	 width="40px" height="66px" viewBox="66.625 5.25 40 66" enable-background="new 66.625 5.25 40 66" xml:space="preserve">
<g>
	<g>
		<g>
			<polygon fill="#FFFFFF" points="95.328,63.168 90.985,58.809 90.985,67.529 			"/>
			<polygon fill="#FFFFFF" points="86.625,63.168 90.985,58.809 82.265,58.809 			"/>
			<polygon fill="#FFFFFF" points="77.904,63.168 82.265,67.529 82.265,58.809 			"/>
			<polygon fill="#FFFFFF" points="86.625,63.168 82.265,67.529 90.985,67.529 			"/>
		</g>
		<g>
			<path fill="#FFFFFF" d="M103.903,38.259h-3.688h-0.182h-0.637c-0.816,0-1.018,0.581-1.018,0.581l-0.871,2.09H97.49l-0.218-2.689
				h-1.363c-0.654,0-0.926,0.599-0.926,0.599l-1.036,2.072h-0.019v-2.689h-0.926c-0.618,0-0.745,0.346-0.781,0.527
				c-0.182-0.346-0.673-0.527-1.545-0.527h-2.198c-0.708,0-0.781,0.545-0.781,0.545l-0.799,3.762h3.107
				c0.908,0,1.199-0.092,1.525-0.328c0.219-0.164,0.4-0.436,0.473-0.781c0.146-0.744-0.363-1.035-0.944-1.072V40.33
				c0.526-0.127,0.981-0.363,1.163-0.854l0.072,3.033h1.49c0.854,0,1.162-0.781,1.162-0.781l0.908-1.816h0.019l0.218,2.617h1.326
				c0.963,0,1.291-0.855,1.291-0.855l1.162-2.652l-0.727,3.488h0.799c1.018,0,1.164-0.836,1.164-0.836l0.163-0.762h1.126
				c0.873,0,1-0.674,1-0.674l0.055-0.217h-1.999l0.182-0.891h1.253c0.854,0,0.982-0.654,0.982-0.654L103.903,38.259z M89.205,40.004
				l0.2-0.945h0.527c0.562,0,0.653,0.164,0.58,0.473c-0.054,0.289-0.254,0.473-0.781,0.473H89.205z M88.842,41.783l0.218-1.035
				h0.527c0.617,0,0.799,0.164,0.727,0.508c-0.072,0.363-0.327,0.51-0.945,0.51h-0.526V41.783z"/>
			<g>
				<g>
					<path fill="#FFFFFF" d="M72.126,40.73h-1.853v1.834h-0.927v-4.287h0.927v1.762h1.853v-1.762h0.927v4.287h-0.927V40.73z"/>
					<path fill="#FFFFFF" d="M75.288,42.637c-0.927,0-1.69-0.363-1.708-1.398h0.927c0.018,0.455,0.272,0.727,0.781,0.727
						c0.381,0,0.799-0.182,0.799-0.617c0-0.328-0.291-0.436-0.763-0.582l-0.309-0.09c-0.672-0.201-1.345-0.455-1.345-1.236
						c0-0.962,0.89-1.271,1.708-1.271c0.835,0,1.562,0.291,1.562,1.236h-0.927c-0.036-0.4-0.254-0.619-0.708-0.619
						c-0.345,0-0.69,0.182-0.69,0.564c0,0.309,0.291,0.418,0.89,0.6l0.363,0.107c0.727,0.236,1.199,0.492,1.199,1.199
						C77.087,42.256,76.142,42.637,75.288,42.637z"/>
					<path fill="#FFFFFF" d="M77.595,38.259h1.49c0.472,0,0.654,0.019,0.835,0.055c0.527,0.127,0.909,0.454,0.909,1.036
						c0,0.545-0.345,0.836-0.854,0.963c0.582,0.107,1.018,0.398,1.018,1.035c0,0.98-0.963,1.199-1.708,1.199h-1.69V38.259z
						 M79.104,40.057c0.418,0,0.817-0.09,0.817-0.58c0-0.438-0.399-0.564-0.763-0.564h-0.654v1.145H79.104z M79.194,41.91
						c0.436,0,0.854-0.109,0.854-0.617s-0.364-0.637-0.8-0.637h-0.727v1.254H79.194z"/>
					<path fill="#FFFFFF" d="M83.428,42.637c-1.381,0-1.999-0.889-1.999-2.197c0-1.291,0.69-2.253,2.053-2.253
						c0.854,0,1.69,0.382,1.708,1.345h-0.963c-0.055-0.438-0.327-0.654-0.745-0.654c-0.835,0-1.09,0.908-1.09,1.598
						c0,0.691,0.254,1.473,1.054,1.473c0.418,0,0.727-0.219,0.799-0.654h0.963C85.099,42.273,84.318,42.637,83.428,42.637z"/>
				</g>
			</g>
		</g>
		<g>
			<path fill="#FFFFFF" d="M74.034,44.49h1.054l0.763,3.252h0.018l0.69-3.252h0.891l-1.108,4.324h-1.036l-0.781-3.307h-0.018
				l-0.836,3.307h-1.054l-1.054-4.324h0.963l0.672,3.252h0.018L74.034,44.49z"/>
			<path fill="#FFFFFF" d="M78.976,48.906c-0.981,0-1.562-0.654-1.562-1.6s0.582-1.6,1.562-1.6c0.981,0,1.562,0.654,1.562,1.6
				S79.958,48.906,78.976,48.906z M78.976,48.307c0.545,0,0.636-0.51,0.636-1s-0.091-1-0.636-1c-0.545,0-0.636,0.51-0.636,1
				S78.431,48.307,78.976,48.307z"/>
			<path fill="#FFFFFF" d="M81.829,45.799l0.018,0.545h0.019c0.2-0.473,0.581-0.6,1.017-0.582v0.801h-0.381
				c-0.146,0.018-0.345,0.09-0.436,0.217c-0.091,0.164-0.109,0.328-0.127,0.527v1.49h-0.89v-2.416c0-0.127-0.018-0.383-0.036-0.6
				h0.817V45.799z"/>
			<path fill="#FFFFFF" d="M84.3,44.49v4.324h-0.909V44.49H84.3z"/>
			<path fill="#FFFFFF" d="M87.152,44.49h0.908v3.725c0,0.201,0.019,0.4,0.036,0.6h-0.908c-0.018-0.145-0.018-0.271-0.018-0.418
				h-0.019c-0.2,0.346-0.527,0.51-0.927,0.51c-0.89,0-1.29-0.818-1.29-1.6c0-0.818,0.473-1.6,1.417-1.6
				c0.309,0,0.636,0.182,0.8,0.438h0.019V44.49H87.152z M86.498,48.307c0.491,0,0.654-0.582,0.654-1s-0.164-1-0.654-1
				c-0.582,0-0.654,0.527-0.654,1S85.917,48.307,86.498,48.307z"/>
			<path fill="#FFFFFF" d="M89.368,44.49h3.508v0.727h-1.291v3.615h-0.926v-3.615h-1.291V44.49z"/>
			<path fill="#FFFFFF" d="M94.11,48.906c-0.98,0-1.562-0.654-1.562-1.6s0.582-1.6,1.562-1.6c0.981,0,1.562,0.654,1.562,1.6
				S95.11,48.906,94.11,48.906z M94.11,48.307c0.545,0,0.637-0.51,0.637-1s-0.092-1-0.637-1s-0.635,0.51-0.635,1
				S93.565,48.307,94.11,48.307z"/>
			<path fill="#FFFFFF" d="M98.181,48.451c-0.199,0.273-0.473,0.455-0.927,0.455c-0.309,0-0.89-0.236-0.981-0.672
				c-0.055-0.184-0.055-0.383-0.055-0.473v-1.963h0.909v1.799c0,0.326,0.091,0.689,0.545,0.689c0.29,0,0.526-0.254,0.545-0.689
				v-1.799h0.909v2.471c0,0.182,0.018,0.363,0.035,0.545h-0.89L98.181,48.451z"/>
			<path fill="#FFFFFF" d="M100.634,45.799l0.018,0.545h0.019c0.2-0.473,0.581-0.6,1.017-0.582v0.801h-0.381
				c-0.146,0.018-0.346,0.09-0.436,0.217c-0.092,0.164-0.109,0.328-0.128,0.527v1.49h-0.89v-2.416c0-0.127-0.019-0.383-0.037-0.6
				h0.818V45.799z"/>
		</g>
	</g>
	<g>
		<path fill="#FFFFFF" d="M93.402,19c0-2.834-2.308-5.142-5.142-5.142c-2.834,0-5.142,2.307-5.142,5.142s2.308,5.142,5.142,5.142
			C91.095,24.16,93.402,21.853,93.402,19z"/>
		<path fill="#FFFFFF" d="M82.537,13.913c0.109,0.073,0.654,0.437,1.363,0.963c0.254-0.291,0.981-0.927,1.89-1.327
			c-0.018-0.036-0.182-0.381-0.654-1.036c0.2-0.073,0.418-0.145,0.418-0.145c-0.981-1.653-2.216-2.962-2.216-2.962
			c-0.582,0.164-1.018,0.327-1.126,0.364c0.145,0.127,1.98,1.853,2.634,2.834l0,0c-0.109,0.037-0.236,0.109-0.4,0.182
			c-0.727-0.999-2.834-2.78-2.834-2.78c-2.58,1.145-4.07,2.834-4.07,2.834c2.18,0.545,4.324,1.581,4.324,1.581
			C82.138,14.24,82.355,14.076,82.537,13.913z"/>
		<path fill="#FFFFFF" d="M79.576,19.672c1.544-0.436,2.58-0.563,2.689-0.582c-0.018-0.636,0.109-1.508,0.382-2.198
			c-1.254-0.345-2.181-0.436-2.181-0.436c0.091-0.164,0.146-0.254,0.236-0.418c-0.164-0.036-2.689-0.509-5.087-0.345
			c0,0-0.309,0.582-0.582,1.326c2.889-0.381,4.814-0.254,5.232-0.218l0,0c-0.127,0.218-0.272,0.436-0.254,0.436
			c0,0-1.944-0.127-5.232,0.472c0,0-0.909,2.635-0.363,5.851c0,0,2.307-1.835,5.214-3.016
			C79.612,20.544,79.558,20.235,79.576,19.672z"/>
		<path fill="#FFFFFF" d="M82.773,21.453c-0.018,0.019-1.326,0.709-2.253,1.544c-0.091-0.182-0.182-0.363-0.182-0.363
			c-1.908,1.381-3.761,3.343-4.633,4.524c0.545,1.054,1.235,1.926,1.671,2.435l0.472-0.908l0,0c0.127,0.109,0.272,0.236,0.436,0.381
			l-0.472,1.054c2.616,2.634,5.051,3.143,5.051,3.143l0.127-1.89c-0.69-0.127-1.126-0.272-1.126-0.272s0.218-2.235,1.544-5.305
			c0,0-0.272-0.091-0.727-0.382c0.018-0.036,0.89-1.49,1.363-2.125C83.5,22.725,83.028,22.089,82.773,21.453z M77.359,28.193
			c-0.291-0.309-0.473-0.527-0.473-0.527c1.562-2.362,3.598-4.215,3.797-4.378c0.073,0.127,0.146,0.254,0.236,0.381
			C80.648,23.924,78.849,25.686,77.359,28.193z"/>
		<path fill="#FFFFFF" d="M91.077,29.974c-0.037-0.055-1.072-1.726-1.817-4.07c0,0-0.236,0.091-0.673,0.2
			c-0.035-0.146-0.163-0.854-0.217-1.145c-0.637,0.036-1.727-0.164-2.181-0.363c-0.019,0.036-0.291,1.036-0.364,1.744
			c-0.218-0.018-0.417-0.055-0.417-0.055c-0.019,0.037-0.509,2.253-0.418,5.142c0,0,0.618,0.018,1.235-0.055
			c-0.363-2.507-0.091-4.688-0.055-5.015c0,0,0.218,0.018,0.345,0.018c-0.018,0.127-0.218,2.29,0.327,4.924
			c-0.236,0.036-0.491,0.073-0.636,0.073c0,0,0.218,1.617,0.399,2.362c0,0,0.654-0.018,1.253-0.073v-0.018c0,0-0.345-1.29-0.6-2.398
			c0.236-0.036,0.491-0.091,0.582-0.109c0.326,1.126,0.763,2.435,0.763,2.435c2.688-0.345,4.942-2.017,4.942-2.017
			c-0.654-0.69-1.689-2.162-1.689-2.162C91.622,29.629,91.367,29.811,91.077,29.974z"/>
		<path fill="#FFFFFF" d="M92.294,14.622c0.473,0.417,1.072,1.181,1.363,1.889c0.09-0.054,0.217-0.145,0.326-0.2
			c0.2-0.109,0.363-0.218,0.363-0.218c0.073,0.127,0.146,0.254,0.219,0.381c0,0,1.344-0.763,2.525-1.744c0,0-0.2-0.345-0.545-0.781
			c-1.145,1.072-2.271,1.908-2.326,1.944c-0.072-0.127-0.145-0.236-0.218-0.345c0.036-0.036,1.017-0.872,2.144-2.035
			c0,0-1.072-1.399-2.743-2.471c0,0-0.491,1.345-1.199,2.58l0.509,0.418L92.294,14.622z"/>
		<path fill="#FFFFFF" d="M87.879,12.078c0.019,0.109,0.108,0.545,0.146,0.963c0.817-0.036,1.49,0.091,2.271,0.364l0.182-0.763
			c0,0,0.418,0.164,0.436,0.182c0.036-0.127,0.381-1.381,0.545-2.853c0,0-0.49-0.2-0.926-0.363c0.018,1.271-0.255,2.943-0.255,2.943
			l0,0l0,0c-0.109-0.037-0.272-0.091-0.454-0.164c0.018-0.182,0.182-1.653,0.109-2.943c0,0-1.509-0.582-3.998-0.454
			c0,0,0.708,1.381,1.181,3.07C87.152,12.078,87.407,12.042,87.879,12.078z"/>
		<path fill="#FFFFFF" d="M95.455,23.833c-0.019,0-1.271-0.527-2.452-1.217c-0.6,0.781-1.381,1.417-2.289,1.835
			c0.127,0.2,0.363,0.582,0.363,0.582c-0.073,0.054-0.164,0.127-0.255,0.182c0.019,0.036,0.927,1.653,2.217,3.088
			c0,0,0.345-0.363,0.636-0.781c-1.417-1.435-2.217-2.525-2.326-2.689c0.164-0.127,0.273-0.236,0.273-0.236s0.744,0.999,2.38,2.471
			c-0.146,0.218-0.327,0.454-0.327,0.454c0.018,0.019,1.162,1.163,2.289,1.98c0,0,0.327-0.381,0.69-0.872
			c-0.127-0.073-1.271-0.817-2.471-1.817c0.073-0.109,0.163-0.236,0.255-0.417c1.361,1.017,2.598,1.708,2.598,1.708
			c1.398-2.198,1.707-4.251,1.707-4.251c-1.543-0.272-3.143-0.763-3.143-0.763C95.583,23.306,95.528,23.579,95.455,23.833z"/>
		<path fill="#FFFFFF" d="M83.046,16.002c-0.291-0.146-0.963-0.418-1.871-0.69c0,0-0.272,0.399-0.455,0.727
			c0.091,0.018,0.963,0.164,2.053,0.509C82.846,16.366,82.955,16.184,83.046,16.002z"/>
		<path fill="#FFFFFF" d="M82.446,20.599c-0.218,0.091-0.636,0.254-1.072,0.472c-0.6,0.291-1.381,0.745-1.381,0.745
			c0.091,0.254,0.182,0.472,0.345,0.817c0.799-0.654,1.926-1.272,2.308-1.454C82.574,20.98,82.501,20.799,82.446,20.599z"/>
		<path fill="#FFFFFF" d="M85.299,24.233c-0.127,0.345-0.509,1.308-0.672,1.908c0,0,0.454,0.127,0.781,0.163
			c0.072-0.581,0.345-1.472,0.454-1.798C85.662,24.433,85.48,24.342,85.299,24.233z"/>
		<path fill="#FFFFFF" d="M90.804,25.214c-0.018-0.037-0.271-0.473-0.345-0.636c-0.182,0.073-0.382,0.146-0.581,0.2
			c0.072,0.146,0.254,0.563,0.345,0.763C90.223,25.541,90.459,25.432,90.804,25.214z"/>
		<path fill="#FFFFFF" d="M93.456,21.943c1.146,0.491,2.162,0.763,2.162,0.763c0.055-0.473,0.055-0.817,0.055-0.817
			s-1.362-0.273-1.962-0.491C93.639,21.598,93.548,21.78,93.456,21.943z"/>
		<path fill="#FFFFFF" d="M95.691,21.126c0-0.146,0-0.272-0.019-0.4c1.381,0.127,3.271-0.073,3.271-0.073
			c-0.073-2.035-0.854-3.906-0.854-3.906c-1.763,0.818-2.925,1.163-2.925,1.163c0.072,0.2,0.145,0.436,0.199,0.672l-1.145,0.2
			c0.037,0.527-0.091,1.689-0.381,2.344c0.653,0.182,1.871,0.363,1.871,0.363c0,0.127,0,0.272,0,0.4
			c1.762,0.345,3.288,0.381,3.288,0.381c0.036-0.327,0.036-1.072,0.036-1.072C98.835,21.217,96.999,21.308,95.691,21.126z"/>
		<path fill="#FFFFFF" d="M94.021,17.456c0.108-0.036,0.545-0.218,0.836-0.363c0,0-0.128-0.327-0.291-0.636l-0.727,0.399
			C93.893,17.056,93.966,17.256,94.021,17.456z"/>
		<path fill="#FFFFFF" d="M91.259,13.84c0.055-0.109,0.163-0.382,0.29-0.709c0,0-0.345-0.2-0.618-0.309l-0.217,0.745
			C90.896,13.64,91.077,13.731,91.259,13.84z"/>
		<path fill="#FFFFFF" d="M86.734,13.204c-0.164-0.418-0.454-1.017-0.454-1.017c-0.182,0.036-0.709,0.182-0.709,0.182
			c0.309,0.472,0.491,0.835,0.582,1.017C86.334,13.313,86.535,13.259,86.734,13.204z"/>
	</g>
	<g>
		<g>
			<path fill="#FFFFFF" d="M75.851,51.939c-0.036-0.436-0.272-0.654-0.708-0.654c-0.345,0-0.69,0.182-0.69,0.564
				c0,0.473,0.418,0.525,0.781,0.6c0.654,0.162,1.617,0.344,1.617,1.217c0,1.072-0.927,1.436-1.854,1.436
				c-0.981,0-1.689-0.383-1.653-1.473h0.945c-0.036,0.473,0.236,0.801,0.727,0.801c0.363,0,0.854-0.109,0.854-0.564
				c0-0.508-0.618-0.545-0.981-0.635c-0.6-0.146-1.417-0.418-1.417-1.182c0-0.98,0.908-1.418,1.78-1.418
				c0.836,0,1.49,0.455,1.49,1.328h-0.891V51.939z"/>
			<path fill="#FFFFFF" d="M79.23,54.646c-0.2,0.273-0.472,0.455-0.926,0.455c-0.291,0-0.873-0.219-0.981-0.654
				c-0.054-0.182-0.054-0.381-0.054-0.473v-1.943h0.89v1.799c0,0.326,0.091,0.689,0.545,0.689c0.272,0,0.527-0.254,0.545-0.689
				v-1.799h0.891v2.453c0,0.182,0.018,0.363,0.036,0.545h-0.89L79.23,54.646z"/>
			<path fill="#FFFFFF" d="M81.611,52.357L81.611,52.357c0.182-0.254,0.509-0.436,0.817-0.436c0.927,0,1.399,0.781,1.399,1.58
				c0,0.764-0.418,1.582-1.29,1.582c-0.381,0-0.727-0.164-0.908-0.51h-0.018v1.562H80.72v-3.543c0-0.199-0.018-0.4-0.036-0.6h0.909
				L81.611,52.357z M82.247,54.502c0.563,0,0.636-0.527,0.636-0.98c0-0.455-0.072-1-0.636-1c-0.491,0-0.636,0.582-0.636,1
				C81.611,53.92,81.756,54.502,82.247,54.502z"/>
			<path fill="#FFFFFF" d="M84.99,53.756c0,0.383,0.054,0.746,0.509,0.746c0.309,0,0.472-0.109,0.545-0.383h0.799
				c-0.073,0.746-0.654,0.982-1.363,0.982c-1.017,0-1.435-0.582-1.435-1.58c0-0.91,0.527-1.6,1.435-1.6
				c0.563,0,1.018,0.182,1.272,0.709c0.091,0.162,0.127,0.344,0.146,0.545c0.018,0.182,0.018,0.381,0.018,0.58H84.99z
				 M86.026,53.156c0-0.326-0.091-0.635-0.527-0.635c-0.418,0-0.509,0.309-0.509,0.635H86.026z"/>
			<path fill="#FFFFFF" d="M88.134,52.012l0.018,0.545h0.018c0.201-0.471,0.582-0.58,1.018-0.58v0.799h-0.381
				c-0.146,0.018-0.346,0.092-0.436,0.219c-0.092,0.162-0.109,0.326-0.128,0.527v1.488h-0.89v-2.398c0-0.127-0.019-0.381-0.037-0.6
				H88.134z"/>
			<path fill="#FFFFFF" d="M91.186,53.885c-0.019,0.289,0.218,0.617,0.509,0.617c0.327,0,0.545-0.309,0.545-0.637
				c0-0.58-0.562-0.672-1.018-0.654v-0.617c0.437-0.018,1-0.072,1-0.635c0-0.311-0.182-0.564-0.491-0.564
				c-0.272,0-0.509,0.291-0.49,0.564h-0.909c0.037-0.818,0.654-1.164,1.399-1.164c0.581,0,1.399,0.346,1.399,1.035
				c0,0.582-0.346,0.928-0.8,1.018v0.02c0.509,0.145,0.8,0.471,0.8,1.107c0,0.654-0.764,1.109-1.453,1.109
				c-0.818,0-1.399-0.328-1.399-1.219h0.908V53.885z"/>
			<path fill="#FFFFFF" d="M95.11,55.102c-1.127,0-1.436-1.145-1.436-2.145c0-0.998,0.309-2.162,1.436-2.162
				c1.162,0,1.472,1.164,1.472,2.162C96.582,53.957,96.272,55.102,95.11,55.102z M95.128,51.395c-0.581,0-0.526,1.453-0.526,1.562
				s-0.055,1.545,0.526,1.545c0.582,0,0.527-1.453,0.527-1.545C95.655,52.867,95.691,51.395,95.128,51.395z"/>
			<path fill="#FFFFFF" d="M98.417,55.102c-1.127,0-1.436-1.145-1.436-2.145c0-0.998,0.309-2.162,1.436-2.162
				c1.162,0,1.472,1.164,1.472,2.162C99.889,53.957,99.579,55.102,98.417,55.102z M98.435,51.395c-0.581,0-0.526,1.453-0.526,1.562
				s-0.055,1.545,0.526,1.545c0.582,0,0.527-1.453,0.527-1.545C98.962,52.867,99.017,51.395,98.435,51.395z"/>
		</g>
	</g>
</g>
</svg>
