<?xml version="1.0" encoding="utf-8"?>
<!-- Generator: Adobe Illustrator 16.0.0, SVG Export Plug-In . SVG Version: 6.00 Build 0)  -->
<!DOCTYPE svg PUBLIC "-//W3C//DTD SVG 1.1//EN" "http://www.w3.org/Graphics/SVG/1.1/DTD/svg11.dtd">
<svg version="1.1" id="Layer_1" xmlns="http://www.w3.org/2000/svg" xmlns:xlink="http://www.w3.org/1999/xlink" x="0px" y="0px"
	 width="40px" height="66px" viewBox="67 5 40 66" enable-background="new 67 5 40 66" xml:space="preserve">
<g>
	<g>
		<g>
			<polygon fill="#FFFFFF" points="95.703,62.918 91.36,58.559 91.36,67.279 			"/>
			<polygon fill="#FFFFFF" points="87,62.918 91.36,58.559 82.64,58.559 			"/>
			<polygon fill="#FFFFFF" points="78.279,62.918 82.64,67.279 82.64,58.559 			"/>
			<polygon fill="#FFFFFF" points="87,62.918 82.64,67.279 91.36,67.279 			"/>
		</g>
		<g>
			<path fill="#FFFFFF" d="M104.278,38.009h-3.688h-0.182h-0.637c-0.816,0-1.018,0.581-1.018,0.581l-0.871,2.09h-0.019l-0.218-2.689
				h-1.363c-0.654,0-0.926,0.599-0.926,0.599l-1.036,2.072h-0.019v-2.689h-0.926c-0.618,0-0.745,0.345-0.781,0.527
				c-0.182-0.345-0.673-0.527-1.545-0.527h-2.198c-0.708,0-0.781,0.545-0.781,0.545l-0.799,3.762h3.107
				c0.908,0,1.199-0.092,1.525-0.328c0.219-0.164,0.4-0.436,0.473-0.781c0.146-0.744-0.363-1.035-0.944-1.072V40.08
				c0.526-0.127,0.981-0.363,1.163-0.854l0.072,3.033h1.49c0.854,0,1.162-0.781,1.162-0.781l0.908-1.816h0.019l0.218,2.617h1.326
				c0.963,0,1.291-0.855,1.291-0.855l1.162-2.652l-0.727,3.488h0.799c1.018,0,1.164-0.836,1.164-0.836l0.163-0.762h1.126
				c0.873,0,1-0.674,1-0.674l0.055-0.217h-1.999l0.182-0.891h1.253c0.854,0,0.982-0.654,0.982-0.654L104.278,38.009z M89.58,39.754
				l0.2-0.945h0.527c0.562,0,0.653,0.164,0.58,0.473c-0.054,0.289-0.254,0.473-0.781,0.473H89.58z M89.217,41.533l0.218-1.035h0.527
				c0.617,0,0.799,0.164,0.727,0.508c-0.072,0.363-0.327,0.51-0.945,0.51h-0.526V41.533z"/>
			<g>
				<g>
					<path fill="#FFFFFF" d="M72.501,40.48h-1.853v1.834h-0.927v-4.287h0.927v1.762h1.853v-1.762h0.927v4.287h-0.927V40.48z"/>
					<path fill="#FFFFFF" d="M75.663,42.387c-0.927,0-1.69-0.363-1.708-1.398h0.927c0.018,0.455,0.272,0.727,0.781,0.727
						c0.381,0,0.799-0.182,0.799-0.617c0-0.328-0.291-0.436-0.763-0.582l-0.309-0.09c-0.672-0.201-1.345-0.455-1.345-1.236
						c0-0.962,0.89-1.271,1.708-1.271c0.835,0,1.562,0.291,1.562,1.236H76.39c-0.036-0.4-0.254-0.619-0.708-0.619
						c-0.345,0-0.69,0.182-0.69,0.564c0,0.309,0.291,0.418,0.89,0.6l0.363,0.107c0.727,0.236,1.199,0.492,1.199,1.199
						C77.462,42.006,76.517,42.387,75.663,42.387z"/>
					<path fill="#FFFFFF" d="M77.97,38.009h1.49c0.472,0,0.654,0.019,0.835,0.055c0.527,0.127,0.909,0.454,0.909,1.036
						c0,0.545-0.345,0.836-0.854,0.963c0.582,0.107,1.018,0.398,1.018,1.035c0,0.98-0.963,1.199-1.708,1.199h-1.69V38.009z
						 M79.479,39.807c0.418,0,0.817-0.09,0.817-0.58c0-0.438-0.399-0.564-0.763-0.564h-0.654v1.145H79.479z M79.569,41.66
						c0.436,0,0.854-0.109,0.854-0.617s-0.364-0.637-0.8-0.637h-0.727v1.254H79.569z"/>
					<path fill="#FFFFFF" d="M83.803,42.387c-1.381,0-1.999-0.889-1.999-2.197c0-1.291,0.69-2.253,2.053-2.253
						c0.854,0,1.69,0.381,1.708,1.345h-0.963c-0.055-0.438-0.327-0.654-0.745-0.654c-0.835,0-1.09,0.908-1.09,1.598
						c0,0.691,0.254,1.473,1.054,1.473c0.418,0,0.727-0.219,0.799-0.654h0.963C85.474,42.023,84.693,42.387,83.803,42.387z"/>
				</g>
			</g>
		</g>
		<g>
			<path fill="#FFFFFF" d="M74.409,44.24h1.054l0.763,3.252h0.018l0.69-3.252h0.891l-1.108,4.324h-1.036L74.9,45.258h-0.018
				l-0.836,3.307h-1.054l-1.054-4.324h0.963l0.672,3.252h0.018L74.409,44.24z"/>
			<path fill="#FFFFFF" d="M79.351,48.656c-0.981,0-1.562-0.654-1.562-1.6s0.582-1.6,1.562-1.6c0.981,0,1.562,0.654,1.562,1.6
				S80.333,48.656,79.351,48.656z M79.351,48.057c0.545,0,0.636-0.51,0.636-1s-0.091-1-0.636-1c-0.545,0-0.636,0.51-0.636,1
				S78.806,48.057,79.351,48.057z"/>
			<path fill="#FFFFFF" d="M82.204,45.549l0.018,0.545h0.019c0.2-0.473,0.581-0.6,1.017-0.582v0.801h-0.381
				c-0.146,0.018-0.345,0.09-0.436,0.217c-0.091,0.164-0.109,0.328-0.127,0.527v1.49h-0.89v-2.416c0-0.127-0.018-0.383-0.036-0.6
				h0.817V45.549z"/>
			<path fill="#FFFFFF" d="M84.675,44.24v4.324h-0.909V44.24H84.675z"/>
			<path fill="#FFFFFF" d="M87.527,44.24h0.908v3.725c0,0.201,0.019,0.4,0.036,0.6h-0.908c-0.018-0.145-0.018-0.271-0.018-0.418
				h-0.019c-0.2,0.346-0.527,0.51-0.927,0.51c-0.89,0-1.29-0.818-1.29-1.6c0-0.818,0.473-1.6,1.417-1.6
				c0.309,0,0.636,0.182,0.8,0.438h0.019V44.24H87.527z M86.873,48.057c0.491,0,0.654-0.582,0.654-1s-0.164-1-0.654-1
				c-0.582,0-0.654,0.527-0.654,1S86.292,48.057,86.873,48.057z"/>
			<path fill="#FFFFFF" d="M89.743,44.24h3.508v0.727H91.96v3.615h-0.926v-3.615h-1.291V44.24z"/>
			<path fill="#FFFFFF" d="M94.485,48.656c-0.98,0-1.562-0.654-1.562-1.6s0.582-1.6,1.562-1.6c0.981,0,1.562,0.654,1.562,1.6
				S95.485,48.656,94.485,48.656z M94.485,48.057c0.545,0,0.637-0.51,0.637-1s-0.092-1-0.637-1s-0.635,0.51-0.635,1
				S93.94,48.057,94.485,48.057z"/>
			<path fill="#FFFFFF" d="M98.556,48.201c-0.199,0.273-0.473,0.455-0.927,0.455c-0.309,0-0.89-0.236-0.981-0.672
				c-0.055-0.184-0.055-0.383-0.055-0.473v-1.963h0.909v1.799c0,0.326,0.091,0.689,0.545,0.689c0.29,0,0.526-0.254,0.545-0.689
				v-1.799h0.909v2.471c0,0.182,0.018,0.363,0.035,0.545h-0.89L98.556,48.201z"/>
			<path fill="#FFFFFF" d="M101.009,45.549l0.018,0.545h0.019c0.2-0.473,0.581-0.6,1.017-0.582v0.801h-0.381
				c-0.146,0.018-0.346,0.09-0.436,0.217c-0.092,0.164-0.109,0.328-0.128,0.527v1.49h-0.89v-2.416c0-0.127-0.019-0.383-0.037-0.6
				h0.818V45.549z"/>
		</g>
	</g>
	<g>
		<path fill="#FFFFFF" d="M93.777,18.75c0-2.834-2.308-5.142-5.142-5.142c-2.834,0-5.142,2.307-5.142,5.142s2.308,5.142,5.142,5.142
			C91.47,23.91,93.777,21.603,93.777,18.75z"/>
		<path fill="#FFFFFF" d="M82.912,13.663c0.109,0.073,0.654,0.437,1.363,0.963c0.254-0.291,0.981-0.927,1.89-1.327
			c-0.018-0.036-0.182-0.381-0.654-1.036c0.2-0.073,0.418-0.145,0.418-0.145c-0.981-1.653-2.216-2.962-2.216-2.962
			c-0.582,0.164-1.018,0.327-1.126,0.364c0.145,0.127,1.98,1.853,2.634,2.834l0,0c-0.109,0.037-0.236,0.109-0.4,0.182
			c-0.727-0.999-2.834-2.78-2.834-2.78c-2.58,1.145-4.07,2.834-4.07,2.834c2.18,0.545,4.324,1.581,4.324,1.581
			C82.513,13.99,82.73,13.826,82.912,13.663z"/>
		<path fill="#FFFFFF" d="M79.951,19.422c1.544-0.436,2.58-0.563,2.689-0.582c-0.018-0.636,0.109-1.508,0.382-2.198
			c-1.254-0.345-2.181-0.436-2.181-0.436c0.091-0.164,0.146-0.254,0.236-0.418c-0.164-0.036-2.689-0.509-5.087-0.345
			c0,0-0.309,0.582-0.582,1.326c2.889-0.381,4.814-0.254,5.232-0.218l0,0c-0.127,0.218-0.272,0.436-0.254,0.436
			c0,0-1.944-0.127-5.232,0.472c0,0-0.909,2.635-0.363,5.851c0,0,2.307-1.835,5.214-3.016
			C79.987,20.294,79.933,19.985,79.951,19.422z"/>
		<path fill="#FFFFFF" d="M83.148,21.203c-0.018,0.019-1.326,0.709-2.253,1.544c-0.091-0.182-0.182-0.363-0.182-0.363
			c-1.908,1.381-3.761,3.343-4.633,4.524c0.545,1.054,1.235,1.926,1.671,2.435l0.472-0.908l0,0c0.127,0.109,0.272,0.236,0.436,0.381
			l-0.472,1.054c2.616,2.634,5.051,3.143,5.051,3.143l0.127-1.89c-0.69-0.127-1.126-0.272-1.126-0.272s0.218-2.235,1.544-5.305
			c0,0-0.272-0.091-0.727-0.382c0.018-0.036,0.89-1.49,1.363-2.125C83.875,22.475,83.403,21.839,83.148,21.203z M77.734,27.943
			c-0.291-0.309-0.473-0.527-0.473-0.527c1.562-2.362,3.598-4.215,3.797-4.378c0.073,0.127,0.146,0.254,0.236,0.381
			C81.023,23.674,79.224,25.436,77.734,27.943z"/>
		<path fill="#FFFFFF" d="M91.452,29.724c-0.037-0.055-1.072-1.726-1.817-4.07c0,0-0.236,0.091-0.673,0.2
			c-0.035-0.146-0.163-0.854-0.217-1.145c-0.637,0.036-1.727-0.164-2.181-0.363c-0.019,0.036-0.291,1.036-0.364,1.744
			c-0.218-0.018-0.417-0.055-0.417-0.055c-0.019,0.037-0.509,2.253-0.418,5.142c0,0,0.618,0.018,1.235-0.055
			c-0.363-2.507-0.091-4.688-0.055-5.015c0,0,0.218,0.018,0.345,0.018c-0.018,0.127-0.218,2.29,0.327,4.924
			c-0.236,0.036-0.491,0.073-0.636,0.073c0,0,0.218,1.617,0.399,2.362c0,0,0.654-0.018,1.253-0.073v-0.018c0,0-0.345-1.29-0.6-2.398
			c0.236-0.036,0.491-0.091,0.582-0.109c0.326,1.126,0.763,2.435,0.763,2.435c2.688-0.345,4.942-2.017,4.942-2.017
			c-0.654-0.69-1.689-2.162-1.689-2.162C91.997,29.379,91.742,29.561,91.452,29.724z"/>
		<path fill="#FFFFFF" d="M92.669,14.372c0.473,0.417,1.072,1.181,1.363,1.889c0.09-0.054,0.217-0.145,0.326-0.2
			c0.2-0.109,0.363-0.218,0.363-0.218c0.073,0.127,0.146,0.254,0.219,0.381c0,0,1.344-0.763,2.525-1.744c0,0-0.2-0.345-0.545-0.781
			c-1.145,1.072-2.271,1.908-2.326,1.944c-0.072-0.127-0.145-0.236-0.218-0.345c0.036-0.036,1.017-0.872,2.144-2.035
			c0,0-1.072-1.399-2.743-2.471c0,0-0.491,1.345-1.199,2.58l0.509,0.418L92.669,14.372z"/>
		<path fill="#FFFFFF" d="M88.254,11.828c0.019,0.109,0.108,0.545,0.146,0.963c0.817-0.036,1.49,0.091,2.271,0.364l0.182-0.763
			c0,0,0.418,0.164,0.436,0.182c0.036-0.127,0.381-1.381,0.545-2.853c0,0-0.49-0.2-0.926-0.363c0.018,1.271-0.255,2.943-0.255,2.943
			l0,0l0,0c-0.109-0.037-0.272-0.091-0.454-0.164c0.018-0.182,0.182-1.653,0.109-2.943c0,0-1.509-0.582-3.998-0.454
			c0,0,0.708,1.381,1.181,3.07C87.527,11.828,87.782,11.792,88.254,11.828z"/>
		<path fill="#FFFFFF" d="M95.83,23.583c-0.019,0-1.271-0.527-2.452-1.217c-0.6,0.781-1.381,1.417-2.289,1.835
			c0.127,0.2,0.363,0.582,0.363,0.582c-0.073,0.054-0.164,0.127-0.255,0.182c0.019,0.036,0.927,1.653,2.217,3.088
			c0,0,0.345-0.363,0.636-0.781c-1.417-1.435-2.217-2.525-2.326-2.689c0.164-0.127,0.273-0.236,0.273-0.236s0.744,0.999,2.38,2.471
			c-0.146,0.218-0.327,0.454-0.327,0.454c0.018,0.019,1.162,1.163,2.289,1.98c0,0,0.327-0.381,0.69-0.872
			c-0.127-0.073-1.271-0.817-2.471-1.817c0.073-0.109,0.163-0.236,0.255-0.417c1.361,1.017,2.598,1.708,2.598,1.708
			c1.398-2.198,1.707-4.251,1.707-4.251c-1.543-0.272-3.143-0.763-3.143-0.763C95.958,23.056,95.903,23.329,95.83,23.583z"/>
		<path fill="#FFFFFF" d="M83.421,15.752c-0.291-0.146-0.963-0.418-1.871-0.69c0,0-0.272,0.399-0.455,0.727
			c0.091,0.018,0.963,0.164,2.053,0.509C83.221,16.116,83.33,15.934,83.421,15.752z"/>
		<path fill="#FFFFFF" d="M82.821,20.349c-0.218,0.091-0.636,0.254-1.072,0.472c-0.6,0.291-1.381,0.745-1.381,0.745
			c0.091,0.254,0.182,0.472,0.345,0.817c0.799-0.654,1.926-1.272,2.308-1.454C82.949,20.73,82.876,20.549,82.821,20.349z"/>
		<path fill="#FFFFFF" d="M85.674,23.983c-0.127,0.345-0.509,1.308-0.672,1.908c0,0,0.454,0.127,0.781,0.163
			c0.072-0.581,0.345-1.472,0.454-1.798C86.037,24.183,85.855,24.092,85.674,23.983z"/>
		<path fill="#FFFFFF" d="M91.179,24.964c-0.018-0.037-0.271-0.473-0.345-0.636c-0.182,0.073-0.382,0.146-0.581,0.2
			c0.072,0.146,0.254,0.563,0.345,0.763C90.598,25.291,90.834,25.182,91.179,24.964z"/>
		<path fill="#FFFFFF" d="M93.831,21.693c1.146,0.491,2.162,0.763,2.162,0.763c0.055-0.473,0.055-0.817,0.055-0.817
			s-1.362-0.273-1.962-0.491C94.014,21.348,93.923,21.53,93.831,21.693z"/>
		<path fill="#FFFFFF" d="M96.066,20.876c0-0.146,0-0.272-0.019-0.4c1.381,0.127,3.271-0.073,3.271-0.073
			c-0.073-2.035-0.854-3.906-0.854-3.906c-1.763,0.818-2.925,1.163-2.925,1.163c0.072,0.2,0.145,0.436,0.199,0.672l-1.145,0.2
			c0.037,0.527-0.091,1.689-0.381,2.344c0.653,0.182,1.871,0.363,1.871,0.363c0,0.127,0,0.272,0,0.4
			c1.762,0.345,3.288,0.381,3.288,0.381c0.036-0.327,0.036-1.072,0.036-1.072C99.21,20.967,97.374,21.058,96.066,20.876z"/>
		<path fill="#FFFFFF" d="M94.396,17.206c0.108-0.036,0.545-0.218,0.836-0.363c0,0-0.128-0.327-0.291-0.636l-0.727,0.399
			C94.268,16.806,94.341,17.006,94.396,17.206z"/>
		<path fill="#FFFFFF" d="M91.634,13.59c0.055-0.109,0.163-0.382,0.29-0.709c0,0-0.345-0.2-0.618-0.309l-0.217,0.745
			C91.271,13.39,91.452,13.481,91.634,13.59z"/>
		<path fill="#FFFFFF" d="M87.109,12.954c-0.164-0.418-0.454-1.017-0.454-1.017c-0.182,0.036-0.709,0.182-0.709,0.182
			c0.309,0.472,0.491,0.835,0.582,1.017C86.709,13.063,86.91,13.009,87.109,12.954z"/>
	</g>
	<g>
		<g>
			<path fill="#FFFFFF" d="M76.226,51.689c-0.036-0.436-0.272-0.654-0.708-0.654c-0.345,0-0.69,0.182-0.69,0.564
				c0,0.473,0.418,0.525,0.781,0.6c0.654,0.162,1.617,0.344,1.617,1.217c0,1.072-0.927,1.436-1.854,1.436
				c-0.981,0-1.689-0.383-1.653-1.473h0.945c-0.036,0.473,0.236,0.801,0.727,0.801c0.363,0,0.854-0.109,0.854-0.564
				c0-0.508-0.618-0.545-0.981-0.635c-0.6-0.146-1.417-0.418-1.417-1.182c0-0.98,0.908-1.418,1.78-1.418
				c0.836,0,1.49,0.455,1.49,1.328h-0.891V51.689z"/>
			<path fill="#FFFFFF" d="M79.605,54.396c-0.2,0.273-0.472,0.455-0.926,0.455c-0.291,0-0.873-0.219-0.981-0.654
				c-0.054-0.182-0.054-0.381-0.054-0.473v-1.943h0.89v1.799c0,0.326,0.091,0.689,0.545,0.689c0.272,0,0.527-0.254,0.545-0.689
				v-1.799h0.891v2.453c0,0.182,0.018,0.363,0.036,0.545h-0.89L79.605,54.396z"/>
			<path fill="#FFFFFF" d="M81.986,52.107L81.986,52.107c0.182-0.254,0.509-0.436,0.817-0.436c0.927,0,1.399,0.781,1.399,1.58
				c0,0.764-0.418,1.582-1.29,1.582c-0.381,0-0.727-0.164-0.908-0.51h-0.018v1.562h-0.891v-3.543c0-0.199-0.018-0.4-0.036-0.6h0.909
				L81.986,52.107z M82.622,54.252c0.563,0,0.636-0.527,0.636-0.98c0-0.455-0.072-1-0.636-1c-0.491,0-0.636,0.582-0.636,1
				C81.986,53.67,82.131,54.252,82.622,54.252z"/>
			<path fill="#FFFFFF" d="M85.365,53.506c0,0.383,0.054,0.746,0.509,0.746c0.309,0,0.472-0.109,0.545-0.383h0.799
				c-0.073,0.746-0.654,0.982-1.363,0.982c-1.017,0-1.435-0.582-1.435-1.58c0-0.91,0.527-1.6,1.435-1.6
				c0.563,0,1.018,0.182,1.272,0.709c0.091,0.162,0.127,0.344,0.146,0.545c0.018,0.182,0.018,0.381,0.018,0.58H85.365z
				 M86.401,52.906c0-0.326-0.091-0.635-0.527-0.635c-0.418,0-0.509,0.309-0.509,0.635H86.401z"/>
			<path fill="#FFFFFF" d="M88.509,51.762l0.018,0.545h0.018c0.201-0.471,0.582-0.58,1.018-0.58v0.799h-0.381
				c-0.146,0.018-0.346,0.092-0.436,0.219c-0.092,0.162-0.109,0.326-0.128,0.527v1.488h-0.89v-2.398c0-0.127-0.019-0.381-0.037-0.6
				H88.509z"/>
			<path fill="#FFFFFF" d="M91.597,53.742c0.019,0.291,0.236,0.527,0.527,0.527c0.454,0,0.6-0.527,0.6-0.891
				c0-0.344-0.182-0.744-0.563-0.744c-0.272,0-0.454,0.219-0.526,0.473l-0.873-0.02l0.092-2.434h2.525v0.6h-1.744l-0.055,1.09
				c0.199-0.199,0.473-0.291,0.763-0.291c0.745,0,1.272,0.455,1.272,1.418c0,0.764-0.654,1.416-1.509,1.416
				c-0.727,0-1.345-0.326-1.38-1.107h0.871V53.742z"/>
			<path fill="#FFFFFF" d="M95.485,54.852c-1.127,0-1.436-1.145-1.436-2.145c0-0.998,0.309-2.162,1.436-2.162
				c1.162,0,1.472,1.164,1.472,2.162C96.957,53.707,96.647,54.852,95.485,54.852z M95.503,51.145c-0.581,0-0.526,1.453-0.526,1.562
				s-0.055,1.545,0.526,1.545c0.582,0,0.527-1.453,0.527-1.545C96.03,52.617,96.066,51.145,95.503,51.145z"/>
			<path fill="#FFFFFF" d="M98.792,54.852c-1.127,0-1.436-1.145-1.436-2.145c0-0.998,0.309-2.162,1.436-2.162
				c1.162,0,1.472,1.164,1.472,2.162C100.264,53.707,99.954,54.852,98.792,54.852z M98.81,51.145c-0.581,0-0.526,1.453-0.526,1.562
				s-0.055,1.545,0.526,1.545c0.582,0,0.527-1.453,0.527-1.545C99.337,52.617,99.392,51.145,98.81,51.145z"/>
		</g>
	</g>
</g>
</svg>
